<svg width="200" height="60" viewBox="0 0 200 60" fill="none" xmlns="http://www.w3.org/2000/svg">
  <rect width="200" height="60" rx="5" fill="#0d6efd" fill-opacity="0.1"/>
  <path d="M30 15H45C47.7614 15 50 17.2386 50 20V40C50 42.7614 47.7614 45 45 45H30C27.2386 45 25 42.7614 25 40V20C25 17.2386 27.2386 15 30 15Z" fill="#0d6efd"/>
  <path d="M55 15H170C172.761 15 175 17.2386 175 20V40C175 42.7614 172.761 45 170 45H55C52.2386 45 50 42.7614 50 40V20C50 17.2386 52.2386 15 55 15Z" fill="#0d6efd" fill-opacity="0.7"/>
  <text x="60" y="35" font-family="Arial, sans-serif" font-size="16" font-weight="bold" fill="white">ProLine</text>
  <text x="35" y="35" font-family="Arial, sans-serif" font-size="16" font-weight="bold" fill="white">OB</text>
</svg>